<svg width="451.75000000000006" height="112.86992759218418" viewBox="0 0 369.8947368421052 92.41835564825331" xmlns="http://www.w3.org/2000/svg" xmlns:xlink="http://www.w3.org/1999/xlink">
<defs id="SvgjsDefs1011"></defs>
<g id="SvgjsG1012" featurekey="Df7oLJ-0" transform="matrix(0.3216621641031464,0,0,0.3216621641031464,-2.102242568767656,-2.0216561618958027)" fill="#ffffff">
<g>
<g><defs><rect id="b" x="7" y="6.5" width="286" height="287.1"></rect></defs><clipPath id="a"><use xlink:href="#b" overflow="visible"></use></clipPath><g clip-path="url(#a)"><path d="M150,198.8c26.1,0,47.2,21.2,47.2,47.4s-21.1,47.4-47.2,47.4s-47.2-21.2-47.2-47.4S123.9,198.8,150,198.8z"></path><path d="M198.7,152.9c-0.1-1.1-0.1-2.2-0.1-3.3c0.1-12.4-4.5-24.4-13.3-33.2l-2-2c-8.7-8.7-20.5-13.4-32.8-13.3c-0.2,0-0.5,0-0.7,0s-0.5,0-0.7,0c-12.3-0.2-24.1,4.6-32.8,13.3l-2,2c-8.8,8.8-13.3,20.8-13.3,33.2c0,1.1,0,2.2-0.1,3.3c-1.3,23.3-19.8,42.4-43.1,44.3c-29.3,2.5-53.5-21.9-51.1-51.3c1.9-23.3,21-41.8,44.1-43.2c1-0.1,2.2-0.1,3.2-0.1c12.4,0.1,24.3-4.5,33.1-13.3l2-2c8.8-8.8,13.3-20.8,13.3-33.2c0-1.6,0.1-3.3,0.2-4.9c2.1-22.9,20.8-41.1,43.7-42.8C174,4.5,197,26.4,197,53.6c0,0.2,0,0.5,0,0.7c-0.2,12.3,4.6,24.2,13.3,32.9l2,2c8.8,8.8,20.7,13.4,33.1,13.3c1,0,2.1,0,3.2,0.1c23.3,1.3,42.2,19.9,44.1,43.2c2.5,29.4-21.8,53.7-51.1,51.3C218.5,195.3,200.1,176.1,198.7,152.9z"></path></g></g></g></g>
<g id="SvgjsG1013" featurekey="Ua4uQk-0" transform="matrix(3.6947668419279607,0,0,3.6947668419279607,107.5662804944073,-8.912383285139821)" fill="#ffffff">
<path d="M4.42 17.04 l5.32 0 l0 2.96 l-8.54 0 l0 -14 l3.22 0 l0 11.04 z M14.72 5.86 l0 2.66 l-3.16 0 l0 -2.66 l3.16 0 z M14.72 9.6 l0 10.4 l-3.16 0 l0 -10.4 l3.16 0 z M21.62 8.26 c-0.9 0 -0.88 0.82 -0.88 1.02 l0 0.32 l2.16 0 l0 2.6 l-2.16 0 l0 7.8 l-3.18 0 l0 -7.8 l-1.42 0 l0 -2.6 l1.42 0 l0 -0.32 c0 -3.22 2.42 -3.62 3.68 -3.62 c1 0 1.98 0.22 2.72 0.7 l-1.06 2.18 c-0.58 -0.22 -0.8 -0.28 -1.28 -0.28 z M30.66 9.42 c2.36 0 5.66 1.78 5 6.48 l-7.26 0 c0.36 1.08 1.3 1.64 2.56 1.64 c1.28 0 1.68 -0.28 2.4 -0.58 l1.74 1.68 c-0.92 0.9 -2.16 1.56 -4.26 1.56 c-2.58 0 -5.66 -1.78 -5.66 -5.36 c0 -3.64 3.12 -5.42 5.48 -5.42 z M30.66 12.12 c-0.9 0 -1.82 0.52 -2.22 1.56 l4.42 0 c-0.32 -1.04 -1.3 -1.56 -2.2 -1.56 z M40.86 17.04 l5.32 0 l0 2.96 l-8.54 0 l0 -14 l3.22 0 l0 11.04 z M53.16 9.42 c2.36 0 5.48 1.78 5.48 5.42 c0 3.66 -3.12 5.36 -5.48 5.36 s-5.48 -1.7 -5.48 -5.36 c0 -3.64 3.12 -5.42 5.48 -5.42 z M53.16 12.2 c-1.2 0 -2.42 0.92 -2.42 2.64 c0 1.66 1.22 2.58 2.42 2.58 s2.44 -0.92 2.44 -2.58 c0 -1.72 -1.24 -2.64 -2.44 -2.64 z M67.84 9.6 l3.16 0 l0 10.4 c0 3.16 -3.2 4.12 -5.52 4.12 c-1.1 0 -2.1 -0.18 -2.74 -0.52 l0 -2.58 c0.64 0.34 1.6 0.48 2.74 0.48 c1.86 0 2.36 -0.96 2.36 -1.5 l0 -1.04 c-0.14 0.36 -1.08 1.24 -2.68 1.24 c-2.38 0 -5.12 -1.7 -5.12 -5.42 c0 -3.58 2.74 -5.36 5.12 -5.36 c1.6 0 2.54 0.92 2.68 1.14 l0 -0.96 z M65.62 17.42 c1.3 0 2.36 -0.9 2.36 -2.64 c0 -1.68 -1.06 -2.58 -2.36 -2.58 c-1.36 0 -2.52 0.92 -2.52 2.58 c0 1.72 1.16 2.64 2.52 2.64 z"></path>
</g>
</svg>